<svg width="490" height="490" viewBox="0 0 490 490" fill="none" xmlns="http://www.w3.org/2000/svg">
<g clip-path="url(#clip0_117_20)">
<g clip-path="url(#clip1_117_20)">
<g clip-path="url(#clip2_117_20)">
<g clip-path="url(#clip3_117_20)">
<path fill-rule="evenodd" clip-rule="evenodd" d="M344.932 188.167L293.445 269.367L293.702 173.054L344.932 188.167Z" fill="#B2FCFB"/>
<path fill-rule="evenodd" clip-rule="evenodd" d="M245.801 129.252L290.372 214.551L207.122 166.138L245.801 129.252Z" fill="#B2FCFB"/>
<path fill-rule="evenodd" clip-rule="evenodd" d="M291.909 214.039V173.054L273.978 178.69L291.909 214.039Z" fill="#B2FCFB"/>
<path fill-rule="evenodd" clip-rule="evenodd" d="M344.163 303.435L247.85 299.593L331.356 251.437L344.163 303.435Z" fill="#B2FCFB"/>
<path fill-rule="evenodd" clip-rule="evenodd" d="M295.239 270.392L330.331 249.9L316.499 237.348L295.239 270.392Z" fill="#B2FCFB"/>
<path fill-rule="evenodd" clip-rule="evenodd" d="M242.984 359.789L198.926 274.49L281.919 323.159L242.984 359.789Z" fill="#B2FCFB"/>
<path fill-rule="evenodd" clip-rule="evenodd" d="M247.594 300.874L282.687 321.366L286.786 303.179L247.594 300.874Z" fill="#B2FCFB"/>
<path fill-rule="evenodd" clip-rule="evenodd" d="M144.109 300.361L196.364 219.418L195.34 315.731L144.109 300.361Z" fill="#B2FCFB"/>
<path fill-rule="evenodd" clip-rule="evenodd" d="M197.389 275.002L197.133 315.731L215.063 310.095L197.389 275.002Z" fill="#B2FCFB"/>
<path fill-rule="evenodd" clip-rule="evenodd" d="M146.415 185.093L242.471 189.96L158.71 237.092L146.415 185.093Z" fill="#B2FCFB"/>
<path fill-rule="evenodd" clip-rule="evenodd" d="M195.083 218.649L159.478 238.629L173.31 251.437L195.083 218.649Z" fill="#B2FCFB"/>
<path fill-rule="evenodd" clip-rule="evenodd" d="M241.703 188.423L206.61 167.675L202.512 186.118L241.703 188.423Z" fill="#B2FCFB"/>
</g>
</g>
<path d="M31.2654 150.945L25.8934 165.704L55.0061 177.181L60.7061 163.127L65.5319 149.358L66.8824 148.966L74.5192 152.95L68.547 167.333L63.5972 180.62L74.4231 184.917L100.827 194.443L96.7533 205.067L71.7242 194.701L12.7847 172.861L29.9169 128.191L31.2674 127.799L39.3003 131.934L31.2654 150.945Z" fill="#B2FCFB"/>
<path d="M146.073 87.864L115.766 114.356L115.942 114.56C121.1 120.5 126.398 123.891 131.834 124.731C137.278 125.582 142.47 123.861 147.41 119.572C149.879 117.427 151.999 114.88 153.768 111.929C155.539 108.96 156.803 105.849 157.561 102.599L158.952 102.491L163.938 110.798C161.083 117.489 157.181 122.983 152.234 127.278C145.321 133.281 137.968 135.794 130.178 134.815C122.387 133.837 115.15 129.497 108.464 121.794C101.727 114.036 98.3399 106.139 98.3039 98.1038C98.2759 90.0789 101.617 83.1523 108.328 77.3282C113.978 72.4224 119.75 70.2336 125.646 70.7578C131.544 71.266 136.978 74.3831 141.95 80.1112C143.604 82.0179 145.025 83.9386 146.213 85.8733L146.073 87.864ZM113.481 83.2644C109.942 86.3375 107.987 90.0468 107.617 94.3924C107.247 98.738 108.484 103.336 111.327 108.181L134.369 87.4339L133.297 85.7573C130.174 82.16 126.902 80.1392 123.481 79.6971C120.062 79.2549 116.729 80.4433 113.481 83.2644Z" fill="#B2FCFB"/>
<path d="M188.647 0L208.468 67.4406L217.403 94.1983L206.803 97.4495L199.595 71.0519L178.337 4.19353L188.647 0Z" fill="#B2FCFB"/>
<path d="M264.214 93.136L266.809 66.0381L269.122 29.7769L279.962 29.6028L276.957 65.812L275.136 93.9543L264.214 93.136ZM276.913 0.804305C278.776 0.944356 280.228 1.6206 281.273 2.83505C282.305 4.03548 282.749 5.61206 282.603 7.56477C282.449 9.61952 281.743 11.2061 280.484 12.3245C279.224 13.4569 277.567 13.9451 275.512 13.793C273.56 13.647 272.087 12.9747 271.093 11.7763C270.11 10.5799 269.696 8.95328 269.85 6.89853C269.998 4.93381 270.701 3.39125 271.959 2.27284C273.206 1.14043 274.856 0.650249 276.913 0.804305Z" fill="#B2FCFB"/>
<path d="M374.312 68.619C381.171 72.8065 385.052 78.2985 385.957 85.095C386.849 91.8855 384.714 99.5143 379.546 107.977C373.696 117.561 366.858 123.549 359.033 125.938C351.212 128.345 343.031 126.942 334.492 121.728C331.139 119.682 327.886 117.205 324.726 114.296L311.378 136.72L302.03 131.014L330.33 85.9893L348.667 54.6159L358.281 59.3296L353.415 67.0424L354.255 67.5546C358.463 66.9404 362.048 66.7143 365.011 66.8784C367.984 67.0484 371.085 67.6287 374.312 68.619ZM339.932 115.522C345.196 118.735 350.384 119.384 355.494 117.463C360.614 115.55 365.247 111.197 369.395 104.404C373.44 97.7756 375.397 92.0155 375.261 87.1218C375.133 82.216 372.952 78.4706 368.72 75.8877C366.248 74.3771 363.374 73.5608 360.103 73.4328C356.848 73.3027 352.985 73.8469 348.513 75.0714L339.12 90.2009L330.096 105.24C332.741 109.706 336.021 113.133 339.932 115.522Z" fill="#B2FCFB"/>
<path d="M430.249 192.758L412.044 156.857L411.804 156.977C404.776 160.513 400.184 164.81 398.029 169.872C395.864 174.938 396.25 180.394 399.19 186.238C400.658 189.161 402.605 191.842 405.03 194.285C407.471 196.732 410.174 198.724 413.137 200.261L412.897 201.636L403.617 204.421C397.837 200.005 393.475 194.869 390.53 189.013C386.417 180.834 385.795 173.089 388.664 165.78C391.533 158.472 397.523 152.528 406.634 147.946C415.816 143.33 424.303 141.994 432.099 143.94C439.884 145.893 445.772 150.837 449.764 158.776C453.125 165.46 453.823 171.595 451.861 177.179C449.916 182.769 445.554 187.268 438.778 190.676C436.523 191.81 434.31 192.712 432.142 193.384L430.249 192.758ZM442.739 162.307C440.635 158.12 437.521 155.311 433.4 153.88C429.278 152.45 424.521 152.516 419.123 154.076L433.55 181.522L435.439 180.896C439.696 178.755 442.459 176.082 443.732 172.879C445.002 169.674 444.672 166.151 442.739 162.307Z" fill="#B2FCFB"/>
<path d="M126.62 328.014L119.976 312.134L88.0201 324.502L93.8602 340.036L100.199 354.727L99.4023 356.02L90.2869 358.499L84.4168 342.479L78.5387 328.104L66.6343 332.669L38.304 344.594L33.7103 333.033L61.5485 322.802L125.236 296.658L144.583 345.338L143.776 346.656L134.241 349.281L126.62 328.014Z" fill="#B2FCFB"/>
<path d="M149.913 426.576L116.296 398.037L116.096 398.271C110.5 404.822 107.685 411.112 107.647 417.144C107.609 423.174 110.318 428.52 115.77 433.178C118.501 435.511 121.614 437.389 125.106 438.814C128.589 440.248 132.16 441.113 135.818 441.411L136.168 442.905L127.971 449.646C120.25 447.641 113.669 444.312 108.225 439.662C100.589 433.138 96.6752 425.577 96.4812 416.98C96.2711 408.383 99.7924 399.842 107.045 391.353C114.364 382.786 122.369 377.836 131.058 376.505C139.739 375.165 147.78 377.658 155.183 383.98C161.409 389.3 164.722 395.194 165.122 401.666C165.52 408.139 163.027 414.527 157.641 420.831C155.843 422.936 153.988 424.791 152.077 426.391L149.913 426.576ZM149.587 390.528C145.689 387.199 141.36 385.687 136.598 385.989C131.818 386.291 127.04 388.376 122.267 392.239L148.486 413.823L150.099 412.382C153.494 408.407 155.159 404.535 155.091 400.768C155.004 397.003 153.17 393.589 149.587 390.528Z" fill="#B2FCFB"/>
<path d="M230.366 380.601L206.687 453.847L198.28 483.576L186.676 479.979L196.432 451.639L218.446 378.018L230.366 380.601Z" fill="#B2FCFB"/>
<path d="M265.679 487.446L264.611 457.655L261.896 417.934L273.656 416.204L275.599 455.948L277.655 486.767L265.679 487.446ZM266.203 385.383C268.26 385.266 269.934 385.785 271.223 386.935C272.513 388.099 273.222 389.756 273.344 391.905C273.472 394.156 272.936 395.978 271.737 397.373C270.541 398.781 268.816 399.55 266.567 399.678C264.42 399.8 262.72 399.278 261.467 398.109C260.229 396.955 259.545 395.252 259.419 393.003C259.297 390.856 259.835 389.078 261.031 387.667C262.23 386.271 263.952 385.509 266.203 385.383Z" fill="#B2FCFB"/>
<path d="M336.937 386.841C344.562 382.431 351.874 381.573 358.875 384.264C365.881 386.965 372.102 393.015 377.536 402.413C383.692 413.059 385.879 422.772 384.098 431.549C382.305 440.335 376.667 447.471 367.18 452.957C363.457 455.11 359.367 456.939 354.913 458.443L369.491 483.036L359.107 489.04L330.625 438.24L310.027 404.163L319.613 397.395L324.476 406.116L325.413 405.576C327.023 401.208 328.688 397.643 330.407 394.88C332.125 392.117 334.302 389.436 336.937 386.841ZM364.051 444.458C369.903 441.075 373.244 436.419 374.072 430.497C374.901 424.573 373.138 417.844 368.781 410.308C364.527 402.951 360.011 398.049 355.236 395.604C350.45 393.165 345.704 393.307 340.998 396.028C338.255 397.615 335.967 399.942 334.128 403.013C332.289 406.084 330.791 410.09 329.63 415.029L339.262 431.996L349.007 448.54C354.689 448.333 359.703 446.973 364.051 444.458Z" fill="#B2FCFB"/>
<path d="M429.883 320.495L409.345 359.519L409.617 359.663C417.228 363.699 423.981 365.077 429.877 363.801C435.771 362.524 440.399 358.717 443.758 352.383C445.44 349.209 446.597 345.762 447.227 342.045C447.869 338.333 447.935 334.66 447.431 331.023L448.812 330.356L457.175 336.889C456.899 344.86 455.082 352.008 451.729 358.335C447.023 367.208 440.497 372.676 432.148 374.735C423.803 376.811 414.699 375.235 404.836 370.005C394.88 364.727 388.308 357.993 385.116 349.798C381.919 341.617 382.6 333.226 387.159 324.624C390.995 317.388 396.028 312.872 402.259 311.073C408.489 309.275 415.265 310.319 422.592 314.203C425.039 315.499 427.252 316.906 429.231 318.422L429.883 320.495ZM394.77 328.66C392.369 333.188 391.835 337.743 393.165 342.327C394.502 346.927 397.575 351.136 402.387 354.953L417.746 324.664L415.988 323.404C411.368 320.955 407.229 320.173 403.567 321.059C399.91 321.963 396.979 324.496 394.77 328.66Z" fill="#B2FCFB"/>
<path d="M18.6628 256.057C18.6628 235.278 35.507 218.434 56.2846 218.436C77.0641 218.436 93.9083 235.28 93.9083 256.057C93.9083 276.837 77.0641 293.681 56.2846 293.681C35.505 293.681 18.6608 276.837 18.6628 256.057Z" fill="#B2FCFB"/>
<path d="M401.01 256.057C401.01 235.278 417.854 218.434 438.634 218.436C459.414 218.436 476.258 235.28 476.256 256.057C476.256 276.837 459.412 293.681 438.634 293.681C417.854 293.681 401.01 276.837 401.01 256.057Z" fill="#B2FCFB"/>
</g>
</g>
<defs>
<clipPath id="clip0_117_20">
<rect width="489.041" height="489.041" fill="white"/>
</clipPath>
<clipPath id="clip1_117_20">
<rect width="489.041" height="489.041" fill="white"/>
</clipPath>
<clipPath id="clip2_117_20">
<rect width="200.823" height="230.536" fill="white" transform="translate(144.109 129.252)"/>
</clipPath>
<clipPath id="clip3_117_20">
<rect width="200.823" height="230.536" fill="white" transform="translate(144.109 129.252)"/>
</clipPath>
</defs>
</svg>
